<svg width="768" height="300" viewBox="0 0 768 300" fill="none" xmlns="http://www.w3.org/2000/svg">
<g clip-path="url(#clip0_819_2637)">
<path d="M300.959 35.3949C96.9202 -25.7321 27.491 4.49829 0 35.3949L3.92911e-05 300C42.902 284.024 62.5871 225.18 222.808 238.784C334.29 248.249 437.199 285.641 557.746 285.641C628.974 285.641 740.904 242.95 768 222.5V20C614.251 94.0644 448.783 79.6811 300.959 35.3949Z" fill="#C39393"/>
<path d="M300.959 35.3949C96.9202 -25.7321 27.491 4.49829 0 35.3949L3.92911e-05 300C42.902 284.024 62.5871 225.18 222.808 238.784C334.29 248.249 437.199 285.641 557.746 285.641C628.974 285.641 740.904 242.95 768 222.5V20C614.251 94.0644 448.783 79.6811 300.959 35.3949Z" fill="white" fill-opacity="0.1"/>
</g>
<defs>
<clipPath id="clip0_819_2637">
<rect width="768" height="300" fill="white"/>
</clipPath>
</defs>
</svg>
