<svg width="100%" height="600" fill="none" xmlns="http://www.w3.org/2000/svg">
<path d="M752.396 70.7899C242.3 -51.4642 68.7276 8.99657 0 70.7899L9.82277e-05 600C107.255 568.047 156.468 450.36 557.02 477.567C835.726 496.498 1093 571.281 1394.37 571.281C1572.44 571.281 1852.26 485.9 1920 445V40C1535.63 188.129 1121.96 159.362 752.396 70.7899Z" fill="#C39393"/>
<path d="M752.396 70.7899C242.3 -51.4642 68.7276 8.99657 0 70.7899L9.82277e-05 600C107.255 568.047 156.468 450.36 557.02 477.567C835.726 496.498 1093 571.281 1394.37 571.281C1572.44 571.281 1852.26 485.9 1920 445V40C1535.63 188.129 1121.96 159.362 752.396 70.7899Z" fill="white" fill-opacity="0.1"/>
</svg>
