<svg width="320" height="100" viewBox="0 0 320 100" fill="none" xmlns="http://www.w3.org/2000/svg">
<g clip-path="url(#clip0_494_46)">
<path d="M125.399 11.7983C40.3834 -8.57737 11.4546 1.49943 0 11.7983L1.63713e-05 100C17.8758 94.6745 26.0779 75.06 92.8367 79.5945C139.288 82.7497 182.166 95.2135 232.394 95.2135C262.073 95.2135 308.71 80.9833 320 74.1667V6.66667C255.938 31.3548 186.993 26.5604 125.399 11.7983Z" fill="#C39393"/>
<path d="M125.399 11.7983C40.3834 -8.57737 11.4546 1.49943 0 11.7983L1.63713e-05 100C17.8758 94.6745 26.0779 75.06 92.8367 79.5945C139.288 82.7497 182.166 95.2135 232.394 95.2135C262.073 95.2135 308.71 80.9833 320 74.1667V6.66667C255.938 31.3548 186.993 26.5604 125.399 11.7983Z" fill="white" fill-opacity="0.1"/>
</g>
<defs>
<clipPath id="clip0_494_46">
<rect width="320" height="100" fill="white"/>
</clipPath>
</defs>
</svg>
