<svg width="991" height="400" viewBox="0 0 991 400" fill="none" xmlns="http://www.w3.org/2000/svg">
<g clip-path="url(#clip0_819_2637)">
<path d="M388.346 47.1932C125.062 -34.3095 35.4735 5.99772 0 47.1932L5.06998e-05 400C55.3592 378.698 80.7601 300.24 287.504 318.378C431.357 330.999 564.146 380.854 719.696 380.854C811.606 380.854 956.036 323.933 991 296.667V26.6667C792.608 125.419 579.094 106.241 388.346 47.1932Z" fill="#C39393"/>
<path d="M388.346 47.1932C125.062 -34.3095 35.4735 5.99772 0 47.1932L5.06998e-05 400C55.3592 378.698 80.7601 300.24 287.504 318.378C431.357 330.999 564.146 380.854 719.696 380.854C811.606 380.854 956.036 323.933 991 296.667V26.6667C792.608 125.419 579.094 106.241 388.346 47.1932Z" fill="white" fill-opacity="0.1"/>
</g>
<defs>
<clipPath id="clip0_819_2637">
<rect width="991" height="400" fill="white"/>
</clipPath>
</defs>
</svg>
