<svg width="650" height="200" viewBox="0 0 650 200" fill="none" xmlns="http://www.w3.org/2000/svg">
<g clip-path="url(#clip0_819_2637)">
<path d="M254.718 23.5966C82.0288 -17.1547 23.2672 2.99886 0 23.5966L3.32542e-05 200C36.3102 189.349 52.9708 150.12 188.575 159.189C282.928 165.499 370.025 190.427 472.051 190.427C532.335 190.427 627.067 161.967 650 148.333V13.3333C519.874 62.7096 379.829 53.1207 254.718 23.5966Z" fill="#C39393"/>
<path d="M254.718 23.5966C82.0288 -17.1547 23.2672 2.99886 0 23.5966L3.32542e-05 200C36.3102 189.349 52.9708 150.12 188.575 159.189C282.928 165.499 370.025 190.427 472.051 190.427C532.335 190.427 627.067 161.967 650 148.333V13.3333C519.874 62.7096 379.829 53.1207 254.718 23.5966Z" fill="white" fill-opacity="0.1"/>
</g>
<defs>
<clipPath id="clip0_819_2637">
<rect width="650" height="200" fill="white"/>
</clipPath>
</defs>
</svg>
